<svg xmlns="http://www.w3.org/2000/svg" width="1200" height="630" viewBox="0 0 1200 630" role="img" aria-label="Lumus Systems - Sistemas inteligentes para operar mejor">
  <rect width="1200" height="630" fill="#FAF7F0"/>
  <rect x="64" y="64" width="1072" height="502" rx="28" fill="#FFFFFF" stroke="#E2DACE" stroke-width="2"/>
  <path d="M120 145h86v86h-86z" fill="#080A0D"/>
  <path d="M143 124h30v86h52v30h-82z" fill="#F4F1E8"/>
  <path d="M183 124h42v30h-42z" fill="#D6A84F"/>
  <path d="M183 164h42v30h-42z" fill="#1F6F6B"/>
  <circle cx="225" cy="240" r="10" fill="#D6A84F"/>
  <text x="252" y="167" font-family="Inter, Arial, sans-serif" font-size="38" font-weight="800" fill="#1A1A1A">Lumus Systems</text>
  <text x="252" y="210" font-family="Inter, Arial, sans-serif" font-size="22" font-weight="700" fill="#4A4A4A">Sistemas inteligentes para operar mejor</text>
  <text x="120" y="332" font-family="Inter, Arial, sans-serif" font-size="66" font-weight="800" fill="#1A1A1A">Automatización operativa</text>
  <text x="120" y="407" font-family="Inter, Arial, sans-serif" font-size="66" font-weight="800" fill="#1A1A1A">e IA práctica para empresas</text>
  <text x="120" y="476" font-family="Inter, Arial, sans-serif" font-size="26" font-weight="600" fill="#4A4A4A">Procesos claros, sistemas mantenibles y control humano.</text>
  <rect x="820" y="132" width="240" height="240" rx="24" fill="#FAF7F0" stroke="#E2DACE" stroke-width="2"/>
  <circle cx="888" cy="206" r="22" fill="#B8862F"/>
  <circle cx="952" cy="254" r="22" fill="#1F6F6B"/>
  <circle cx="1016" cy="302" r="22" fill="#1A1A1A"/>
  <path d="M888 206l64 48 64 48" fill="none" stroke="#B8862F" stroke-width="8" stroke-linecap="round"/>
  <rect x="820" y="408" width="240" height="46" rx="23" fill="#B8862F"/>
  <text x="855" y="439" font-family="Inter, Arial, sans-serif" font-size="18" font-weight="800" fill="#1A1A1A">Revisión operativa</text>
</svg>
